<?xml version="1.0" encoding="utf-8"?>
<!-- Generator: Adobe Illustrator 26.0.3, SVG Export Plug-In . SVG Version: 6.00 Build 0)  -->
<svg version="1.1" id="Слой_1" xmlns="http://www.w3.org/2000/svg" xmlns:xlink="http://www.w3.org/1999/xlink" x="0px" y="0px"
	 viewBox="0 0 2000 2000" style="enable-background:new 0 0 2000 2000;" xml:space="preserve">
<style type="text/css">
	.st0{fill:#FFFFFF;}
	.st1{fill:#FF0000;}
</style>
<path class="st0" d="M1795,2000H205c-113.2,0-205-91.8-205-205V205C0,91.8,91.8,0,205,0H1795c113.2,0,205,91.8,205,205V1795
	C2000,1908.2,1908.2,2000,1795,2000z"/>
<path class="st1" d="M1000,1358.1L1000,1358.1c-197.8,0-358.1-160.3-358.1-358.1v0c0-197.8,160.3-358.1,358.1-358.1h0
	c197.8,0,358.1,160.3,358.1,358.1v0C1358.1,1197.8,1197.8,1358.1,1000,1358.1z"/>
</svg>
